<?xml version="1.0" encoding="utf-8"?>
<!-- Generator: Adobe Illustrator 23.0.1, SVG Export Plug-In . SVG Version: 6.00 Build 0)  -->
<svg version="1.1" id="Layer_1" xmlns="http://www.w3.org/2000/svg" xmlns:xlink="http://www.w3.org/1999/xlink" x="0px" y="0px"
	 viewBox="0 0 30 30" style="enable-background:new 0 0 30 30;" xml:space="preserve">
<style type="text/css">
	.st0{fill:#44566C;}
	.st1{fill:#909090;}
	.st2{fill:#FFFFFF;}
	.st3{fill:#B7B7B7;}
</style>
<desc>Created with Lunacy</desc>
<path id="Oval" class="st0" d="M15,30c8.3,0,15-6.7,15-15c0-8.3-6.7-15-15-15C6.7,0,0,6.7,0,15C0,23.3,6.7,30,15,30z"/>
<g transform="translate(6 8)">
	<path id="Path" class="st1" d="M10.3,11.7L10.3,11.7l-3,3.3l1.3-4L10.3,11.7z"/>
	<path class="st2" d="M16.2,0.2C16,0,15.8-0.1,15.5,0.1l-15,8C0.4,8.1,0.3,8.3,0.3,8.5c0,0.2,0.1,0.4,0.3,0.4l5.2,2
		c0.1,0,0.1,0,0.2,0c0.1,0,0.3-0.1,0.4-0.1l9.8-10C16.3,0.7,16.3,0.4,16.2,0.2z"/>
	<path class="st2" d="M15.9,0c-0.2-0.1-0.4,0-0.6,0.2l-7,10.1c-0.1,0.1-0.1,0.3-0.1,0.4c0,0.1,0.2,0.2,0.3,0.3l5.9,2
		c0.1,0,0.1,0,0.2,0c0.1,0,0.2,0,0.3-0.1c0.1-0.1,0.2-0.2,0.2-0.3l1.1-12.1C16.3,0.3,16.2,0.1,15.9,0L15.9,0z"/>
	<path class="st3" d="M15.3,1L8.8,11.3L7.4,15l-1.2-4.7L15.3,1z"/>
</g>
</svg>
