<?xml version="1.0" encoding="utf-8"?>
<!-- Generator: Adobe Illustrator 23.0.1, SVG Export Plug-In . SVG Version: 6.00 Build 0)  -->
<svg version="1.1" id="Layer_1" xmlns="http://www.w3.org/2000/svg" xmlns:xlink="http://www.w3.org/1999/xlink" x="0px" y="0px"
	 viewBox="0 0 29.2 29.2" style="enable-background:new 0 0 29.2 29.2;" xml:space="preserve">
<style type="text/css">
	.st0{fill:#556080;}
	.st1{clip-path:url(#SVGID_2_);fill:#E7ECED;}
</style>
<desc>Created with Lunacy</desc>
<circle class="st0" cx="14.6" cy="14.6" r="14.6"/>
<g>
	<defs>
		<circle id="SVGID_1_" cx="14.6" cy="14.6" r="14.6"/>
	</defs>
	<clipPath id="SVGID_2_">
		<use xlink:href="#SVGID_1_"  style="overflow:visible;"/>
	</clipPath>
	<path id="Path" class="st1" d="M10.2,23.1l-4.4,2.4c-0.3,0.1-0.5,0.3-0.7,0.5c2.6,2.2,5.9,3.5,9.5,3.5c3.6,0,6.9-1.3,9.5-3.4
		c-0.2-0.2-0.5-0.4-0.8-0.5l-4.7-2.4c-0.6-0.3-1-0.9-1-1.6v-1.8c0.1-0.2,0.3-0.3,0.4-0.6c0.6-0.9,1.1-1.9,1.5-2.9
		c0.6-0.2,1.1-0.7,1.1-1.4v-2c0-0.4-0.2-0.8-0.5-1.1V8.9c0,0,0.6-4.4-5.4-4.4c-6,0-5.4,4.4-5.4,4.4v2.8c-0.3,0.3-0.5,0.7-0.5,1.1v2
		c0,0.5,0.3,1,0.7,1.2c0.5,2.1,1.8,3.7,1.8,3.7v1.8C11.1,22.2,10.8,22.8,10.2,23.1z"/>
</g>
</svg>
